<svg xmlns="http://www.w3.org/2000/svg" xmlns:xlink="http://www.w3.org/1999/xlink" width="500" zoomAndPan="magnify" viewBox="0 0 375 374.999991" height="500" preserveAspectRatio="xMidYMid meet" version="1.0"><defs><clipPath id="b5e307dfb2"><path d="M 197 173 L 373.527344 173 L 373.527344 373 L 197 373 Z M 197 173 " clip-rule="nonzero"/></clipPath><clipPath id="79328fb1c7"><path d="M 142.59375 90 L 233 90 L 233 152.335938 L 142.59375 152.335938 Z M 142.59375 90 " clip-rule="nonzero"/></clipPath><clipPath id="2dfcf79cf8"><path d="M 142.59375 69 L 233 69 L 233 133 L 142.59375 133 Z M 142.59375 69 " clip-rule="nonzero"/></clipPath><clipPath id="ca24061663"><path d="M 142.59375 49 L 233 49 L 233 113 L 142.59375 113 Z M 142.59375 49 " clip-rule="nonzero"/></clipPath><clipPath id="7e2bff0c32"><path d="M 301 227.09375 L 329.074219 227.09375 L 329.074219 324 L 301 324 Z M 301 227.09375 " clip-rule="nonzero"/></clipPath><clipPath id="269273d9ea"><path d="M 255.59375 227.09375 L 286 227.09375 L 286 324 L 255.59375 324 Z M 255.59375 227.09375 " clip-rule="nonzero"/></clipPath><clipPath id="242cbc940c"><path d="M 69 233 L 107 233 L 107 318.492188 L 69 318.492188 Z M 69 233 " clip-rule="nonzero"/></clipPath></defs><rect x="-37.5" width="450" fill="#ffffff" y="-37.499999" height="449.999989" fill-opacity="1"/><rect x="-37.5" width="450" fill="#ffffff" y="-37.499999" height="449.999989" fill-opacity="1"/><path fill="#00bf63" d="M 177.070312 313.640625 C 177.070312 319.269531 173.070312 326.164062 168.21875 329.023438 L 97.417969 369.898438 C 92.515625 372.71875 84.515625 372.71875 79.71875 369.871094 L 8.851562 328.972656 C 3.972656 326.167969 -0.0390625 319.269531 0 313.652344 L 0 231.839844 C 0 226.238281 3.972656 219.328125 8.878906 216.507812 L 79.640625 175.605469 C 84.570312 172.800781 92.527344 172.800781 97.417969 175.605469 L 168.246094 216.507812 C 173.070312 219.300781 177.070312 226.238281 177.121094 231.839844 Z M 177.070312 313.640625 " fill-opacity="1" fill-rule="nonzero"/><g clip-path="url(#b5e307dfb2)"><path fill="#00bf63" d="M 374.273438 313.640625 C 374.273438 319.269531 370.316406 326.164062 365.421875 329.023438 L 294.582031 369.898438 C 289.71875 372.71875 281.722656 372.71875 276.867188 369.871094 L 206.066406 328.972656 C 201.1875 326.164062 197.164062 319.269531 197.191406 313.652344 L 197.191406 231.839844 C 197.191406 226.238281 201.1875 219.328125 206.066406 216.507812 L 276.867188 175.605469 C 281.722656 172.800781 289.757812 172.800781 294.582031 175.605469 L 365.421875 216.507812 C 370.316406 219.300781 374.273438 226.238281 374.3125 231.839844 Z M 374.273438 313.640625 " fill-opacity="1" fill-rule="nonzero"/></g><path fill="#00bf63" d="M 275.679688 144.113281 C 275.679688 149.714844 271.71875 156.664062 266.839844 159.460938 L 195.988281 200.359375 C 191.109375 203.140625 183.152344 203.140625 178.25 200.359375 L 107.433594 159.460938 C 102.570312 156.664062 98.582031 149.730469 98.582031 144.113281 L 98.582031 62.324219 C 98.636719 56.699219 102.570312 49.777344 107.433594 46.941406 L 178.25 6.117188 C 183.191406 3.257812 191.109375 3.257812 195.988281 6.117188 L 266.839844 46.941406 C 271.695312 49.777344 275.679688 56.683594 275.679688 62.324219 Z M 275.679688 144.113281 " fill-opacity="1" fill-rule="nonzero"/><g clip-path="url(#79328fb1c7)"><path fill="#ffffff" d="M 142.699219 152.242188 L 232.199219 152.3125 L 187.539062 90.167969 Z M 142.699219 152.242188 " fill-opacity="1" fill-rule="nonzero"/></g><g clip-path="url(#2dfcf79cf8)"><path fill="#ffffff" d="M 144.011719 131.351562 L 187.539062 71.082031 L 230.851562 131.386719 L 144.011719 131.351562 M 142.59375 131.351562 C 142.59375 131.5625 142.628906 131.777344 142.734375 131.988281 C 142.984375 132.449219 143.480469 132.769531 144.011719 132.769531 L 230.851562 132.804688 C 231.382812 132.804688 231.878906 132.519531 232.128906 132.023438 C 232.234375 131.8125 232.269531 131.597656 232.269531 131.386719 C 232.269531 131.101562 232.164062 130.816406 231.984375 130.570312 L 188.671875 70.265625 C 188.390625 69.910156 187.964844 69.664062 187.539062 69.664062 C 187.078125 69.664062 186.652344 69.875 186.402344 70.265625 L 142.878906 130.5 C 142.699219 130.746094 142.59375 131.03125 142.59375 131.351562 Z M 142.59375 131.351562 " fill-opacity="1" fill-rule="nonzero"/></g><g clip-path="url(#ca24061663)"><path fill="#ffffff" d="M 144.082031 111.34375 L 187.609375 51.109375 L 230.921875 111.414062 L 144.082031 111.34375 M 142.664062 111.34375 C 142.664062 111.554688 142.699219 111.769531 142.808594 111.980469 C 143.054688 112.441406 143.550781 112.761719 144.082031 112.761719 L 230.921875 112.832031 C 231.453125 112.832031 231.949219 112.550781 232.199219 112.054688 C 232.304688 111.839844 232.339844 111.628906 232.339844 111.414062 C 232.339844 111.128906 232.234375 110.847656 232.054688 110.597656 L 188.742188 50.292969 C 188.460938 49.941406 188.035156 49.691406 187.609375 49.691406 C 187.148438 49.691406 186.722656 49.90625 186.472656 50.292969 L 142.949219 110.492188 C 142.769531 110.742188 142.664062 111.058594 142.664062 111.34375 Z M 142.664062 111.34375 " fill-opacity="1" fill-rule="nonzero"/></g><g clip-path="url(#7e2bff0c32)"><path fill="#ffffff" d="M 303.816406 237.808594 L 301.136719 237.808594 L 301.136719 227.09375 L 303.816406 227.09375 C 312.691406 227.09375 319.890625 234.289062 319.890625 243.167969 L 319.890625 261.921875 C 319.890625 263.605469 320.683594 265.195312 322.03125 266.207031 L 328.460938 271.027344 C 329.75 271.996094 330.535156 273.488281 330.601562 275.09375 C 330.667969 276.699219 330.007812 278.253906 328.808594 279.320312 L 321.6875 285.644531 C 320.542969 286.664062 319.890625 288.121094 319.890625 289.652344 L 319.890625 307.464844 C 319.890625 316.339844 312.691406 323.539062 303.816406 323.539062 L 301.136719 323.539062 L 301.136719 312.820312 L 303.816406 312.820312 C 306.773438 312.820312 309.171875 310.421875 309.171875 307.464844 L 309.171875 289.652344 C 309.171875 285.058594 311.136719 280.6875 314.570312 277.636719 L 316.785156 275.667969 L 315.601562 274.78125 C 311.554688 271.742188 309.171875 266.980469 309.171875 261.921875 L 309.171875 243.167969 C 309.171875 240.207031 306.773438 237.808594 303.816406 237.808594 Z M 303.816406 237.808594 " fill-opacity="1" fill-rule="evenodd"/></g><g clip-path="url(#269273d9ea)"><path fill="#ffffff" d="M 282.382812 237.808594 L 285.0625 237.808594 L 285.0625 227.09375 L 282.382812 227.09375 C 273.507812 227.09375 266.308594 234.289062 266.308594 243.167969 L 266.308594 261.921875 C 266.308594 263.605469 265.515625 265.195312 264.167969 266.207031 L 257.738281 271.027344 C 256.449219 271.996094 255.664062 273.488281 255.597656 275.09375 C 255.53125 276.699219 256.191406 278.253906 257.394531 279.320312 L 264.511719 285.644531 C 265.65625 286.664062 266.308594 288.121094 266.308594 289.652344 L 266.308594 307.464844 C 266.308594 316.339844 273.507812 323.539062 282.382812 323.539062 L 285.0625 323.539062 L 285.0625 312.820312 L 282.382812 312.820312 C 279.425781 312.820312 277.027344 310.421875 277.027344 307.464844 L 277.027344 289.652344 C 277.027344 285.058594 275.0625 280.6875 271.628906 277.636719 L 269.414062 275.667969 L 270.597656 274.78125 C 274.644531 271.742188 277.027344 266.980469 277.027344 261.921875 L 277.027344 243.167969 C 277.027344 240.207031 279.425781 237.808594 282.382812 237.808594 Z M 282.382812 237.808594 " fill-opacity="1" fill-rule="evenodd"/></g><path fill="#ffffff" d="M 57.367188 306.273438 C 55.546875 306.273438 54.332031 305.667969 53.121094 304.453125 L 28.847656 280.179688 C 26.417969 277.753906 26.417969 274.113281 28.847656 271.683594 L 53.121094 247.414062 C 55.546875 244.984375 59.1875 244.984375 61.613281 247.414062 C 64.042969 249.839844 64.042969 253.480469 61.613281 255.90625 L 41.589844 275.933594 L 61.613281 295.957031 C 64.042969 298.386719 64.042969 302.027344 61.613281 304.453125 C 60.402344 305.667969 59.1875 306.273438 57.367188 306.273438 Z M 57.367188 306.273438 " fill-opacity="1" fill-rule="nonzero"/><path fill="#ffffff" d="M 118.046875 306.273438 C 116.226562 306.273438 115.015625 305.667969 113.800781 304.453125 C 111.375 302.027344 111.375 298.386719 113.800781 295.957031 L 133.824219 275.933594 L 113.800781 255.90625 C 111.375 253.480469 111.375 249.839844 113.800781 247.414062 C 116.226562 244.984375 119.867188 244.984375 122.296875 247.414062 L 146.570312 271.683594 C 148.996094 274.113281 148.996094 277.753906 146.570312 280.179688 L 122.296875 304.453125 C 121.082031 305.667969 119.867188 306.273438 118.046875 306.273438 Z M 118.046875 306.273438 " fill-opacity="1" fill-rule="nonzero"/><g clip-path="url(#242cbc940c)"><path fill="#ffffff" d="M 75.570312 318.410156 C 74.964844 318.410156 74.359375 318.410156 73.75 317.804688 C 70.71875 316.589844 68.898438 313.554688 70.109375 309.914062 L 94.382812 237.097656 C 95.597656 234.0625 98.628906 232.242188 102.269531 233.457031 C 105.304688 234.667969 107.125 237.703125 105.914062 241.34375 L 81.640625 314.160156 C 80.425781 316.589844 78 318.410156 75.570312 318.410156 Z M 75.570312 318.410156 " fill-opacity="1" fill-rule="nonzero"/></g></svg>